PathFileType	4	(X/Y/Z)	C:\Git\research_data\Projects\torsion_deformities_healthy_kinematics\simulations\TD01\pre\dynamic_13_l\marker_experimental.trc
DataRate	CameraRate	NumFrames	NumMarkers	Units	OrigDataRate	OrigDataStartFrame	OrigNumFrames
200	200	8	30	mm	200	129	513
Frame#	Time	C7			T10			CLAV			STRN			RBAK			LASI			RASI			SACR			RT1			RT2			RT3			RKNE			RS1			RS2			RS3			RANK			RHEE			RTOE			LT1			LT2			LT3			LKNE			LS1			LS2			LS3			LANK			LHEE			LTOE			RHJC			LHJC		
		X1	Y1	Z1	X2	Y2	Z2	X3	Y3	Z3	X4	Y4	Z4	X5	Y5	Z5	X6	Y6	Z6	X7	Y7	Z7	X8	Y8	Z8	X9	Y9	Z9	X10	Y10	Z10	X11	Y11	Z11	X12	Y12	Z12	X13	Y13	Z13	X14	Y14	Z14	X15	Y15	Z15	X16	Y16	Z16	X17	Y17	Z17	X18	Y18	Z18	X19	Y19	Z19	X20	Y20	Z20	X21	Y21	Z21	X22	Y22	Z22	X23	Y23	Z23	X24	Y24	Z24	X25	Y25	Z25	X26	Y26	Z26	X27	Y27	Z27	X28	Y28	Z28	X29	Y29	Z29	X30	Y30	Z30	

129	0.640000	-23.125507	1234.179565	195.737320	-63.877029	1048.116577	191.518753	96.514809	1184.970337	194.580322	144.639893	1053.154419	188.943695	-57.113415	1158.161377	287.084167	78.088570	839.097168	85.294037	80.243423	856.839905	287.207458	-84.459122	881.857849	189.552643	102.570305	666.795715	316.351318	83.635040	602.856079	319.625427	132.682556	609.908203	300.030457	145.445480	474.503845	277.603577	101.234779	340.336975	306.582123	80.065819	277.818085	297.048798	130.266663	282.411743	291.359741	92.255119	85.811790	264.794922	43.657242	73.614677	214.562866	230.068054	63.292961	239.999344	43.303486	642.208069	41.557919	23.157919	578.052429	41.836163	74.359642	583.611755	48.927635	49.753696	422.381836	49.750221	-82.702499	357.026520	31.212778	-140.801987	326.967224	43.655270	-100.323380	296.366211	51.954620	-280.113312	234.125427	79.186211	-303.377899	268.975983	119.857620	-259.597626	91.616798	118.793686	16.594517	794.514839	266.097725	15.017107	781.526683	118.291732	
130	0.645000	-16.662502	1234.996460	196.060898	-57.454987	1048.970703	191.801987	102.961166	1185.795898	194.862320	150.968338	1053.931396	189.197632	-50.656082	1159.019531	287.460052	84.683060	840.079956	85.742622	86.323074	857.650696	287.781830	-78.114342	882.596985	189.698685	107.070572	666.387146	316.941711	87.060616	602.628235	319.944550	136.373215	608.948181	300.896606	148.400848	473.893677	277.997162	102.260582	340.180878	306.391541	80.628716	277.908142	296.584686	131.040817	281.992676	291.720734	92.300529	85.819748	264.567993	43.707928	73.675690	214.360123	230.125381	63.282040	239.962051	52.440781	643.578491	41.599018	33.344734	579.174622	41.917183	84.472633	585.512512	48.819401	62.966328	423.850525	49.700890	-69.104752	358.630188	31.341064	-127.347115	328.809265	43.746922	-86.993019	298.044830	52.155594	-267.243591	236.306183	79.418663	-290.879547	270.726410	120.174301	-245.291611	93.741318	117.772331	22.786847	795.253322	266.443177	21.586374	782.391732	118.552676	
131	0.650000	-10.217415	1235.829590	196.362976	-51.060734	1049.841309	192.084290	109.383812	1186.630859	195.122620	157.264008	1054.717896	189.432693	-44.223820	1159.900757	287.816833	91.248276	841.130676	86.192856	92.375641	858.448975	288.347565	-71.796104	883.368774	189.846863	111.453941	665.967896	317.518585	90.400848	602.405701	320.236084	139.973053	608.017212	301.727875	151.249649	473.293701	278.350220	103.431023	340.032379	306.232788	81.366692	277.991058	296.226013	131.938370	281.608246	291.994171	92.375526	85.832764	264.356140	43.767159	73.755592	214.180527	230.189484	63.252407	239.912689	61.504436	645.073364	41.624313	43.516624	580.424683	41.988804	94.542046	587.554688	48.733231	76.090172	425.525635	49.661407	-55.564083	360.342773	31.527271	-113.894630	330.666321	43.885696	-73.629593	299.774475	52.300549	-254.213989	238.131866	79.657898	-278.295715	272.101288	120.478516	-230.444321	95.659714	116.974205	28.951052	795.995224	266.758854	28.125869	783.318971	118.790253	
132	0.655000	-3.788835	1236.675415	196.644730	-44.691936	1050.724609	192.365585	115.784332	1187.472168	195.362701	163.530350	1055.511719	189.651657	-37.814465	1160.801636	288.155579	97.789291	842.242188	86.647774	98.403931	859.234619	288.903778	-65.502159	884.170044	189.994476	115.750465	665.559448	318.073975	93.713646	602.211487	320.497070	143.532272	607.152283	302.496399	154.008728	472.711792	278.660492	104.780861	339.887360	306.108185	82.312050	278.059540	295.977325	132.988571	281.255981	292.167175	92.481163	85.850647	264.161438	43.835697	73.854538	214.025452	230.260880	63.206944	239.856384	70.497002	646.680054	41.634251	53.675068	581.789429	42.047672	104.569725	589.726257	48.664154	89.112732	427.392914	49.627117	-42.098797	362.137512	31.755955	-100.461746	332.508148	44.058453	-60.247173	301.531372	52.390053	-241.030807	239.590210	79.892311	-265.625977	273.099060	120.754326	-215.104538	97.363472	116.408051	35.090080	796.740780	267.045790	34.640206	784.303476	119.008149	
133	0.660000	2.624728	1237.530396	196.907364	-38.346241	1051.616577	192.645660	122.164429	1188.316895	195.584076	169.770782	1056.310547	189.857193	-31.425758	1161.718140	288.477509	104.310501	843.406250	87.109550	104.410545	860.007446	289.449310	-59.230389	884.997253	190.138855	119.988449	665.180359	318.601288	97.048157	602.064819	320.726196	147.093857	606.382202	303.180084	156.691711	472.154388	278.927917	106.329834	339.743317	306.017181	83.482063	278.109039	295.837219	134.208160	280.933563	292.233185	92.616692	85.873390	263.985352	43.913647	73.971985	213.894958	230.339310	63.149094	239.797821	79.419807	648.385803	41.629162	63.816544	583.256775	42.091202	114.553604	592.015381	48.606594	102.022537	429.436737	49.594723	-28.725645	363.987366	32.012196	-87.064690	334.306091	44.252995	-46.859169	303.293030	52.428291	-227.700089	240.674194	80.113144	-252.868515	273.720123	120.991425	-199.318848	98.849892	116.071587	41.206541	797.489910	267.305095	41.133317	785.339258	119.209749	
134	0.665000	9.024830	1238.390747	197.152100	-32.021305	1052.513550	192.924133	128.525894	1189.162109	195.788239	175.988678	1057.111572	190.051804	-25.055399	1162.646240	288.783722	110.815529	844.613770	87.579468	110.397804	860.766663	289.983002	-52.978874	885.846375	190.277405	124.192947	664.844971	319.095764	100.442238	601.980652	320.923920	150.691101	605.726685	303.764465	159.309128	471.626434	279.154144	108.082420	339.599731	305.956665	84.878624	278.138275	295.799042	135.601044	280.639069	292.192505	92.779892	85.901314	263.828491	44.000610	74.106995	213.787964	230.424072	63.082432	239.740997	88.273018	650.177856	41.609329	73.932976	584.815552	42.117340	124.487961	594.410461	48.555088	114.809105	431.640503	49.562222	-15.459220	365.865875	32.282299	-73.717926	336.033417	44.458630	-33.477661	305.038849	52.422131	-214.227417	241.381592	80.314651	-240.020493	273.966431	121.185066	-183.131134	100.120850	115.952972	47.302596	798.241708	267.537946	47.608330	786.419335	119.397916	
135	0.670000	15.413076	1239.252686	197.380127	-25.714819	1053.411499	193.200485	134.870605	1190.004517	195.976700	182.187332	1057.911865	190.237823	-18.701054	1163.582153	289.075378	117.307228	845.854980	88.057823	116.367722	861.511047	290.503479	-46.745876	886.713135	190.407639	128.384598	664.563232	319.554810	103.920998	601.968506	321.092316	154.346100	605.195068	304.243439	161.868515	471.131317	279.342468	110.028252	339.458038	305.921722	86.488686	278.149261	295.851746	137.158676	280.371399	292.052124	92.967384	85.935135	263.690948	44.095848	74.258469	213.702362	230.514206	63.010326	239.689056	97.055847	652.043640	41.575005	84.012566	586.455750	42.124302	134.364014	596.899170	48.504910	127.463028	433.986969	49.528736	-2.311349	367.747833	32.554417	-60.433372	337.665955	44.666496	-20.112743	306.750275	52.380306	-200.617844	241.714584	80.493965	-227.078247	273.841217	121.335548	-166.582397	101.181427	116.032463	53.379932	798.994684	267.745392	54.067559	787.535967	119.574879	
136	0.675000	21.791113	1240.112671	197.592651	-19.424538	1054.306885	193.474045	141.200500	1190.840820	196.150940	188.369919	1058.708252	190.417328	-12.360399	1164.521606	289.353638	123.787666	847.119446	88.543991	122.321968	862.239014	291.009491	-40.529858	887.592957	190.527252	132.578995	664.340088	319.978058	107.496231	602.032593	321.234741	158.069214	604.786865	304.619202	164.374725	470.671051	279.497314	112.143219	339.321686	305.906464	88.285339	278.147064	295.980774	138.860901	280.130249	291.825287	93.174873	85.975960	263.572144	44.198376	74.425339	213.635315	230.608704	62.935711	239.644241	105.766884	653.970764	41.526432	94.040916	588.167908	42.110321	144.170547	599.468689	48.452484	139.975876	436.458466	49.494301	10.709418	369.609467	32.819038	-47.219795	339.181915	44.869701	-6.772027	308.410645	52.312721	-186.875732	241.679077	80.650856	-214.037537	273.348541	121.447418	-149.710724	102.038727	116.284241	59.439745	799.746706	267.928659	60.512502	788.680559	119.742348	
